<?xml version="1.0" encoding="UTF-8" standalone="no"?>
<!-- Created with Inkscape (http://www.inkscape.org/) -->

<svg
   width="300mm"
   height="300mm"
   viewBox="0 0 300 300"
   version="1.1"
   id="svg1"
   xml:space="preserve"
   inkscape:version="1.3.2 (091e20e, 2023-11-25)"
   sodipodi:docname="eassistant_logo.svg"
   xmlns:inkscape="http://www.inkscape.org/namespaces/inkscape"
   xmlns:sodipodi="http://sodipodi.sourceforge.net/DTD/sodipodi-0.dtd"
   xmlns="http://www.w3.org/2000/svg"
   xmlns:svg="http://www.w3.org/2000/svg"><sodipodi:namedview
     id="namedview1"
     pagecolor="#ffffff"
     bordercolor="#000000"
     borderopacity="0.25"
     inkscape:showpageshadow="2"
     inkscape:pageopacity="0.0"
     inkscape:pagecheckerboard="true"
     inkscape:deskcolor="#d1d1d1"
     inkscape:document-units="mm"
     inkscape:zoom="0.48320764"
     inkscape:cx="644.6504"
     inkscape:cy="580.49579"
     inkscape:window-width="1512"
     inkscape:window-height="854"
     inkscape:window-x="0"
     inkscape:window-y="38"
     inkscape:window-maximized="1"
     inkscape:current-layer="svg1" /><defs
     id="defs1" /><g
     inkscape:label="Layer 1"
     inkscape:groupmode="layer"
     id="layer1" /><g
     id="g10"
     transform="translate(4.8123243,2.6285093)"
     style="fill:#000000"
     inkscape:export-filename="e-assistant-logo.png"
     inkscape:export-xdpi="190"
     inkscape:export-ydpi="190"><g
       id="g6"
       transform="matrix(-1.5110823,0,0,1.5110823,648.8825,-294.84769)"
       style="fill:#000000"><path
         id="path4"
         d="m 262.38533,326.84535 -13,33.22266 c -2.08934,5.34133 3.496,10.45333 8.632,7.9 l 36.43733,-18.12133 -32.06933,-23.00133"
         style="fill:#000000;fill-opacity:1;fill-rule:nonzero;stroke:none;stroke-width:0.133333" /></g><g
       id="g9"
       style="fill:#000000"
       inkscape:export-filename="ai_assist_logo.png"
       inkscape:export-xdpi="190"
       inkscape:export-ydpi="190"
       transform="matrix(1.5110823,0,0,1.5110823,-358.50713,-294.84769)"><g
         id="g5"
         transform="matrix(-1,0,0,0.99999997,666.66761,0)"
         style="fill:#000000"><g
           id="g7"
           style="fill:#000000"><path
             id="path3"
             d="m 314.62266,234.73601 h 38.45066 c 1.50134,0 2.992,0.0627 4.46534,0.184 3.53066,0.29334 6.924,-1.41466 8.69066,-4.48533 v 0 c 3.29467,-5.72933 -0.46666,-12.96667 -7.052,-13.52267 -2.012,-0.16933 -4.048,-0.256 -6.104,-0.256 h -38.18666 c -39.89067,0 -73.56933,32.63467 -73.292,72.52534 0.136,19.68266 8.17867,37.49066 21.096,50.408 13.028,13.02799 31.032,21.08266 50.91733,21.08266 h 39.46533 c 2.056,0 4.092,-0.0867 6.104,-0.25733 6.58534,-0.55467 10.34667,-7.79334 7.052,-13.52133 v 0 c -1.76666,-3.072 -5.16,-4.77867 -8.69066,-4.48667 -1.47334,0.12267 -2.964,0.18533 -4.46534,0.18533 h -39.46533 c -30.18133,0 -54.648,-24.91066 -53.92,-55.23866 0.70534,-29.43734 25.488,-52.61734 54.93467,-52.61734"
             style="fill:#000000;fill-opacity:1;fill-rule:nonzero;stroke:none;stroke-width:0.133333" /><path
             id="path7"
             d="m 425.07466,288.67335 c 0,25.876 -13.636,48.552 -34.112,61.24666 -1.472,0.91067 -3.09467,1.33467 -4.70267,1.33467 -3.13867,0 -6.20267,-1.63734 -7.88667,-4.54933 -2.45733,-4.27734 -0.98533,-9.66267 3.2,-12.28667 15.25867,-9.524 25.42134,-26.46667 25.42134,-45.74533 0,-19.27734 -10.16267,-36.23467 -25.42134,-45.76 -2.80533,-1.75867 -4.39866,-4.76267 -4.39866,-7.84134 0,-1.50133 0.39466,-3.03333 1.19866,-4.444 2.548,-4.42933 8.26667,-5.9 12.604,-3.20133 4.732,2.94267 9.10134,6.40133 13.01467,10.32933 13.028,13.02934 21.08267,31.03334 21.08267,50.91734"
             style="fill:#000000;fill-opacity:1;fill-rule:nonzero;stroke:none;stroke-width:0.133333" /></g></g><g
         id="g8"
         transform="translate(2.2614803)"
         style="fill:#000000"><path
           id="path6"
           d="m 307.7421,289.29243 c -5.94933,0 -10.772,-4.82266 -10.772,-10.772 0,-5.94933 4.82267,-10.77333 10.772,-10.77333 5.94933,0 10.772,4.824 10.772,10.77333 0,5.94934 -4.82267,10.772 -10.772,10.772"
           style="fill:#000000;fill-opacity:1;fill-rule:nonzero;stroke:none;stroke-width:0.133333" /><path
           id="path5"
           d="m 354.40256,289.29243 c -5.94933,0 -10.772,-4.82266 -10.772,-10.772 0,-5.94933 4.82267,-10.77333 10.772,-10.77333 5.94933,0 10.772,4.824 10.772,10.77333 0,5.94934 -4.82267,10.772 -10.772,10.772"
           style="fill:#000000;fill-opacity:1;fill-rule:nonzero;stroke:none;stroke-width:0.133333" /></g></g></g></svg>
